<svg xmlns="http://www.w3.org/2000/svg" viewBox="0 0 200 200" fill="none">
  <!-- Phone shadow -->
  <ellipse cx="100" cy="185" rx="35" ry="5" fill="#E2E8F0"/>
  <!-- Phone body -->
  <rect x="60" y="18" width="80" height="164" rx="14" fill="#6366F1"/>
  <!-- Phone inner bezel -->
  <rect x="64" y="22" width="72" height="156" rx="12" fill="#4F46E5"/>
  <!-- Screen -->
  <rect x="68" y="38" width="64" height="128" rx="4" fill="#C4B5FD"/>
  <!-- Status bar -->
  <rect x="68" y="38" width="64" height="12" rx="4" fill="#A78BFA"/>
  <circle cx="76" cy="44" r="2" fill="#C4B5FD"/>
  <rect x="110" y="42" width="16" height="3" rx="1" fill="#C4B5FD"/>
  <!-- Notch/camera -->
  <rect x="88" y="24" width="24" height="8" rx="4" fill="#312E81"/>
  <circle cx="100" cy="28" r="2.5" fill="#1E1B4B"/>
  <!-- App header -->
  <rect x="72" y="54" width="56" height="10" rx="2" fill="#E0E7FF"/>
  <rect x="76" y="57" width="28" height="4" rx="1" fill="#6366F1"/>
  <!-- App card 1 -->
  <rect x="72" y="70" width="56" height="28" rx="4" fill="white"/>
  <circle cx="84" cy="80" r="6" fill="#E0E7FF"/>
  <rect x="95" y="76" width="28" height="3" rx="1" fill="#E0E7FF"/>
  <rect x="95" y="82" width="20" height="3" rx="1" fill="#C4B5FD"/>
  <rect x="76" y="92" width="48" height="3" rx="1" fill="#E0E7FF"/>
  <!-- App card 2 -->
  <rect x="72" y="104" width="56" height="28" rx="4" fill="white"/>
  <circle cx="84" cy="114" r="6" fill="#E0E7FF"/>
  <rect x="95" y="110" width="28" height="3" rx="1" fill="#E0E7FF"/>
  <rect x="95" y="116" width="20" height="3" rx="1" fill="#C4B5FD"/>
  <rect x="76" y="126" width="48" height="3" rx="1" fill="#E0E7FF"/>
  <!-- Bottom nav -->
  <rect x="68" y="140" width="64" height="26" rx="4" fill="#E0E7FF"/>
  <circle cx="82" cy="153" r="4" fill="#6366F1"/>
  <circle cx="100" cy="153" r="4" fill="#C4B5FD"/>
  <circle cx="118" cy="153" r="4" fill="#C4B5FD"/>
  <!-- Home indicator -->
  <rect x="88" y="172" width="24" height="3" rx="1.5" fill="#4F46E5"/>
</svg>