<svg xmlns="http://www.w3.org/2000/svg" viewBox="0 0 200 200" fill="none">
  <!-- Table -->
  <ellipse cx="100" cy="155" rx="70" ry="12" fill="#FDE68A"/>
  <rect x="90" y="155" width="20" height="30" fill="#D97706"/>
  <rect x="75" y="182" width="50" height="5" rx="2.5" fill="#B45309"/>
  <!-- Saucer -->
  <ellipse cx="100" cy="138" rx="35" ry="8" fill="#FEF3C7"/>
  <ellipse cx="100" cy="136" rx="30" ry="6" fill="#FDE68A"/>
  <!-- Cup body -->
  <path d="M72 100c0 0-2 36 28 36s28-36 28-36H72z" fill="white" stroke="#D97706" stroke-width="1.5"/>
  <!-- Cup top rim -->
  <ellipse cx="100" cy="100" rx="28" ry="7" fill="#FEF3C7" stroke="#D97706" stroke-width="1.5"/>
  <!-- Coffee surface -->
  <ellipse cx="100" cy="102" rx="24" ry="5" fill="#92400E"/>
  <!-- Handle -->
  <path d="M128 108c8 0 14 5 14 12s-6 12-14 12" stroke="#D97706" stroke-width="3" fill="none"/>
  <!-- Steam -->
  <path d="M88 85c0-5 4-10 0-18" stroke="#D1D5DB" stroke-width="2" stroke-linecap="round" fill="none"/>
  <path d="M100 80c0-5-4-12 0-20" stroke="#D1D5DB" stroke-width="2" stroke-linecap="round" fill="none"/>
  <path d="M112 85c0-5 4-10 0-18" stroke="#D1D5DB" stroke-width="2" stroke-linecap="round" fill="none"/>
  <!-- Small heart in steam -->
  <path d="M100 55c-1-2-4-3-5-1s1 3 5 6c4-3 6-4 5-6s-4-1-5 1z" fill="#FCA5A5" opacity="0.6"/>
</svg>
