<svg xmlns="http://www.w3.org/2000/svg" viewBox="0 0 200 200" fill="none">
  <!-- Smoke clouds -->
  <circle cx="85" cy="172" r="12" fill="#E2E8F0"/>
  <circle cx="100" cy="168" r="16" fill="#E2E8F0"/>
  <circle cx="118" cy="170" r="10" fill="#E2E8F0"/>
  <!-- Flame outer -->
  <path d="M90 148 L100 180 L110 148" fill="#F59E0B"/>
  <!-- Flame inner -->
  <path d="M94 148 L100 170 L106 148" fill="#EF4444"/>
  <!-- Rocket body -->
  <path d="M100 20 C88 40 84 70 84 100 L84 148 L116 148 L116 100 C116 70 112 40 100 20Z" fill="#A78BFA"/>
  <!-- Rocket body accent -->
  <path d="M100 20 C94 35 90 58 88 85 L88 148 L100 148 L100 20Z" fill="#8B5CF6"/>
  <!-- Nose cone highlight -->
  <path d="M100 24 C96 36 94 52 93 68" stroke="#C4B5FD" stroke-width="2" stroke-linecap="round" fill="none"/>
  <!-- Window -->
  <circle cx="100" cy="72" r="10" fill="#1E293B"/>
  <circle cx="100" cy="72" r="7" fill="#3B82F6"/>
  <circle cx="97" cy="69" r="2.5" fill="#93C5FD"/>
  <!-- Left fin -->
  <path d="M84 120 L66 148 L84 148Z" fill="#8B5CF6"/>
  <!-- Right fin -->
  <path d="M116 120 L134 148 L116 148Z" fill="#A78BFA"/>
  <!-- Body stripe -->
  <rect x="84" y="100" width="32" height="4" rx="1" fill="#C4B5FD"/>
  <rect x="84" y="110" width="32" height="4" rx="1" fill="#C4B5FD"/>
  <!-- Stars -->
  <circle cx="30" cy="40" r="2" fill="#A78BFA"/>
  <circle cx="165" cy="30" r="2.5" fill="#8B5CF6"/>
  <circle cx="155" cy="70" r="1.5" fill="#C4B5FD"/>
  <circle cx="40" cy="80" r="2" fill="#C4B5FD"/>
  <circle cx="22" cy="60" r="1.5" fill="#A78BFA"/>
  <circle cx="172" cy="55" r="2" fill="#A78BFA"/>
</svg>